<svg width="74" height="4" viewBox="0 0 74 4" fill="none" xmlns="http://www.w3.org/2000/svg">
<rect width="74" height="4" fill="#00B3FF"/>
<rect x="33" width="2" height="2" fill="white"/>
<rect x="19" y="2" width="2" height="2" fill="white"/>
<rect x="37" width="2" height="2" fill="white"/>
<rect x="61" width="2" height="2" fill="white"/>
<rect x="51" width="2" height="2" fill="white"/>
<rect x="63" y="2" width="1" height="1" fill="white"/>
<rect x="46" y="3" width="1" height="1" fill="white"/>
<rect x="16" y="3" width="1" height="1" fill="white"/>
<rect x="31" width="1" height="1" fill="white"/>
<rect x="64" y="3" width="1" height="1" fill="white"/>
<rect x="65" y="2" width="1" height="1" fill="white"/>
<rect x="66" y="3" width="1" height="1" fill="white"/>
<rect x="64" y="1" width="1" height="1" fill="white"/>
<rect x="65" width="1" height="1" fill="white"/>
<rect x="67" width="1" height="1" fill="white"/>
<rect x="67" y="2" width="1" height="1" fill="white"/>
<rect y="2" width="1" height="1" fill="white"/>
<rect x="1" y="3" width="1" height="1" fill="white"/>
<rect x="22" y="3" width="1" height="1" fill="white"/>
<rect x="2" y="2" width="1" height="1" fill="white"/>
<rect x="68" y="1" width="1" height="1" fill="white"/>
<rect x="69" y="2" width="1" height="1" fill="white"/>
<rect x="70" y="3" width="1" height="1" fill="white"/>
<rect x="72" y="1" width="1" height="1" fill="white"/>
<rect x="73" y="2" width="1" height="1" fill="white"/>
</svg>
