<svg width="57" height="13" viewBox="0 0 57 13" fill="none" xmlns="http://www.w3.org/2000/svg">
<path d="M53.0315 10V4.048H54.5195V4.72H54.7355C54.8235 4.48 54.9675 4.304 55.1675 4.192C55.3755 4.08 55.6155 4.024 55.8875 4.024H56.6075V5.368H55.8635C55.4795 5.368 55.1635 5.472 54.9155 5.68C54.6675 5.88 54.5435 6.192 54.5435 6.616V10H53.0315Z" fill="black"/>
<path d="M49.8439 10V4.048H51.3559V10H49.8439ZM50.5999 3.352C50.3279 3.352 50.0959 3.264 49.9039 3.088C49.7199 2.912 49.6279 2.68 49.6279 2.392C49.6279 2.104 49.7199 1.872 49.9039 1.696C50.0959 1.52 50.3279 1.432 50.5999 1.432C50.8799 1.432 51.1119 1.52 51.2959 1.696C51.4799 1.872 51.5719 2.104 51.5719 2.392C51.5719 2.68 51.4799 2.912 51.2959 3.088C51.1119 3.264 50.8799 3.352 50.5999 3.352Z" fill="black"/>
<path d="M44.5916 10.168C44.1196 10.168 43.6756 10.052 43.2596 9.82C42.8516 9.58 42.5236 9.232 42.2756 8.776C42.0276 8.32 41.9036 7.768 41.9036 7.12V6.928C41.9036 6.28 42.0276 5.728 42.2756 5.272C42.5236 4.816 42.8516 4.472 43.2596 4.24C43.6676 4 44.1116 3.88 44.5916 3.88C44.9516 3.88 45.2516 3.924 45.4916 4.012C45.7396 4.092 45.9396 4.196 46.0916 4.324C46.2436 4.452 46.3596 4.588 46.4396 4.732H46.6556V1.6H48.1676V10H46.6796V9.28H46.4636C46.3276 9.504 46.1156 9.708 45.8276 9.892C45.5476 10.076 45.1356 10.168 44.5916 10.168ZM45.0476 8.848C45.5116 8.848 45.8996 8.7 46.2116 8.404C46.5236 8.1 46.6796 7.66 46.6796 7.084V6.964C46.6796 6.388 46.5236 5.952 46.2116 5.656C45.9076 5.352 45.5196 5.2 45.0476 5.2C44.5836 5.2 44.1956 5.352 43.8836 5.656C43.5716 5.952 43.4156 6.388 43.4156 6.964V7.084C43.4156 7.66 43.5716 8.1 43.8836 8.404C44.1956 8.7 44.5836 8.848 45.0476 8.848Z" fill="black"/>
<path d="M37.9778 10.168C37.3858 10.168 36.8618 10.044 36.4058 9.796C35.9578 9.54 35.6058 9.184 35.3498 8.728C35.1018 8.264 34.9778 7.72 34.9778 7.096V6.952C34.9778 6.328 35.1018 5.788 35.3498 5.332C35.5978 4.868 35.9458 4.512 36.3938 4.264C36.8418 4.008 37.3618 3.88 37.9538 3.88C38.5378 3.88 39.0458 4.012 39.4778 4.276C39.9098 4.532 40.2458 4.892 40.4858 5.356C40.7258 5.812 40.8458 6.344 40.8458 6.952V7.468H36.5138C36.5298 7.876 36.6818 8.208 36.9698 8.464C37.2578 8.72 37.6098 8.848 38.0258 8.848C38.4498 8.848 38.7618 8.756 38.9618 8.572C39.1618 8.388 39.3138 8.184 39.4178 7.96L40.6538 8.608C40.5418 8.816 40.3778 9.044 40.1618 9.292C39.9538 9.532 39.6738 9.74 39.3218 9.916C38.9698 10.084 38.5218 10.168 37.9778 10.168ZM36.5258 6.34H39.3098C39.2778 5.996 39.1378 5.72 38.8898 5.512C38.6498 5.304 38.3338 5.2 37.9418 5.2C37.5338 5.2 37.2098 5.304 36.9698 5.512C36.7298 5.72 36.5818 5.996 36.5258 6.34Z" fill="black"/>
<path d="M25.0237 10V4.048H26.5117V4.696H26.7277C26.8317 4.496 27.0037 4.324 27.2437 4.18C27.4837 4.028 27.7997 3.952 28.1917 3.952C28.6157 3.952 28.9557 4.036 29.2117 4.204C29.4677 4.364 29.6637 4.576 29.7997 4.84H30.0157C30.1517 4.584 30.3437 4.372 30.5917 4.204C30.8397 4.036 31.1917 3.952 31.6477 3.952C32.0157 3.952 32.3477 4.032 32.6437 4.192C32.9477 4.344 33.1877 4.58 33.3637 4.9C33.5477 5.212 33.6397 5.608 33.6397 6.088V10H32.1277V6.196C32.1277 5.868 32.0437 5.624 31.8757 5.464C31.7077 5.296 31.4717 5.212 31.1677 5.212C30.8237 5.212 30.5557 5.324 30.3637 5.548C30.1797 5.764 30.0877 6.076 30.0877 6.484V10H28.5757V6.196C28.5757 5.868 28.4917 5.624 28.3237 5.464C28.1557 5.296 27.9197 5.212 27.6157 5.212C27.2717 5.212 27.0037 5.324 26.8117 5.548C26.6277 5.764 26.5357 6.076 26.5357 6.484V10H25.0237Z" fill="black"/>
<path d="M19.9341 10.168C19.5101 10.168 19.1301 10.096 18.7941 9.952C18.4581 9.8 18.1901 9.584 17.9901 9.304C17.7981 9.016 17.7021 8.668 17.7021 8.26C17.7021 7.852 17.7981 7.512 17.9901 7.24C18.1901 6.96 18.4621 6.752 18.8061 6.616C19.1581 6.472 19.5581 6.4 20.0061 6.4H21.6381V6.064C21.6381 5.784 21.5501 5.556 21.3741 5.38C21.1981 5.196 20.9181 5.104 20.5341 5.104C20.1581 5.104 19.8781 5.192 19.6941 5.368C19.5101 5.536 19.3901 5.756 19.3341 6.028L17.9421 5.56C18.0381 5.256 18.1901 4.98 18.3981 4.732C18.6141 4.476 18.8981 4.272 19.2501 4.12C19.6101 3.96 20.0461 3.88 20.5581 3.88C21.3421 3.88 21.9621 4.076 22.4181 4.468C22.8741 4.86 23.1021 5.428 23.1021 6.172V8.392C23.1021 8.632 23.2141 8.752 23.4381 8.752H23.9181V10H22.9101C22.6141 10 22.3701 9.928 22.1781 9.784C21.9861 9.64 21.8901 9.448 21.8901 9.208V9.196H21.6621C21.6301 9.292 21.5581 9.42 21.4461 9.58C21.3341 9.732 21.1581 9.868 20.9181 9.988C20.6781 10.108 20.3501 10.168 19.9341 10.168ZM20.1981 8.944C20.6221 8.944 20.9661 8.828 21.2301 8.596C21.5021 8.356 21.6381 8.04 21.6381 7.648V7.528H20.1141C19.8341 7.528 19.6141 7.588 19.4541 7.708C19.2941 7.828 19.2141 7.996 19.2141 8.212C19.2141 8.428 19.2981 8.604 19.4661 8.74C19.6341 8.876 19.8781 8.944 20.1981 8.944Z" fill="black"/>
<path d="M13.2921 12.448C12.8441 12.448 12.4841 12.38 12.2121 12.244C11.9401 12.108 11.7441 11.932 11.6241 11.716C11.5121 11.5 11.4561 11.272 11.4561 11.032C11.4561 10.728 11.5281 10.488 11.6721 10.312C11.8161 10.136 11.9561 10.02 12.0921 9.964V9.772C11.9641 9.684 11.8401 9.56 11.7201 9.4C11.6081 9.24 11.5521 9.024 11.5521 8.752C11.5521 8.472 11.6201 8.252 11.7561 8.092C11.9001 7.924 12.0521 7.804 12.2121 7.732V7.54L13.1721 8.08C13.0841 8.096 13.0041 8.132 12.9321 8.188C12.8601 8.244 12.8241 8.34 12.8241 8.476C12.8241 8.612 12.8721 8.712 12.9681 8.776C13.0641 8.84 13.1761 8.872 13.3041 8.872H14.9241C15.6281 8.872 16.1601 9.02 16.5201 9.316C16.8881 9.612 17.0721 10.032 17.0721 10.576V10.672C17.0721 11.208 16.8881 11.636 16.5201 11.956C16.1601 12.284 15.6281 12.448 14.9241 12.448H13.2921ZM13.4121 11.224H15.0681C15.2841 11.224 15.4481 11.176 15.5601 11.08C15.6721 10.984 15.7281 10.848 15.7281 10.672C15.7281 10.496 15.6721 10.36 15.5601 10.264C15.4481 10.168 15.2841 10.12 15.0681 10.12H13.4121C13.1961 10.12 13.0321 10.168 12.9201 10.264C12.8081 10.36 12.7521 10.496 12.7521 10.672C12.7521 10.848 12.8081 10.984 12.9201 11.08C13.0321 11.176 13.1961 11.224 13.4121 11.224ZM14.0361 7C14.3081 7 14.5361 6.916 14.7201 6.748C14.9041 6.572 14.9961 6.336 14.9961 6.04C14.9961 5.744 14.9041 5.512 14.7201 5.344C14.5361 5.168 14.3081 5.08 14.0361 5.08C13.7641 5.08 13.5361 5.168 13.3521 5.344C13.1681 5.512 13.0761 5.744 13.0761 6.04C13.0761 6.336 13.1681 6.572 13.3521 6.748C13.5361 6.916 13.7641 7 14.0361 7ZM14.0361 8.224C13.5881 8.224 13.1841 8.144 12.8241 7.984C12.4721 7.824 12.1921 7.584 11.9841 7.264C11.7841 6.936 11.6841 6.536 11.6841 6.064V6.016C11.6841 5.544 11.7841 5.152 11.9841 4.84C12.1921 4.52 12.4721 4.28 12.8241 4.12C13.1761 3.96 13.5721 3.88 14.0121 3.88C14.1961 3.88 14.3721 3.9 14.5401 3.94C14.7081 3.972 14.8561 4.008 14.9841 4.048H17.0001V5.2H16.0521V5.392C16.1161 5.496 16.1681 5.616 16.2081 5.752C16.2481 5.888 16.2681 6.04 16.2681 6.208C16.2681 6.848 16.0641 7.344 15.6561 7.696C15.2481 8.048 14.7081 8.224 14.0361 8.224Z" fill="black"/>
<path fill-rule="evenodd" clip-rule="evenodd" d="M4.00012 2C4.55241 2 5.00012 1.55228 5.00012 1C5.00012 0.447715 4.55241 0 4.00012 0C3.44784 0 3.00012 0.447715 3.00012 1C3.00012 1.55228 3.44784 2 4.00012 2ZM0.292879 6.70724C0.209876 6.62441 0.143728 6.52912 0.0954519 6.42644C0.0283648 6.28459 -0.00260096 6.13261 0.0001706 5.98242C0.00234441 5.85192 0.0300566 5.72077 0.0848667 5.59677C0.136535 5.47919 0.211257 5.37059 0.30755 5.27839C0.355533 5.23225 0.407462 5.19159 0.462397 5.15661L3.44541 3.16793C3.78131 2.944 4.21891 2.944 4.55481 3.16793L7.53653 5.15575C7.5976 5.1945 7.65498 5.24026 7.70736 5.29276C7.79059 5.37581 7.85687 5.47139 7.90518 5.57438C7.972 5.71601 8.00284 5.86771 8.00007 6.01762C7.99789 6.14811 7.97018 6.27924 7.91538 6.40323C7.86369 6.52086 7.78893 6.62949 7.69259 6.72172C7.64464 6.76781 7.59275 6.80843 7.53786 6.84338L4.55484 8.83207C4.21894 9.056 3.78134 9.056 3.44544 8.83207L0.463729 6.84426C0.40265 6.8055 0.34527 6.75974 0.292879 6.70724ZM4.00014 6.79816L2.80288 5.99999L4.00011 5.20184L5.19737 6.00001L4.00014 6.79816ZM0.445437 9.83205L3.44544 11.8321C3.78134 12.056 4.21894 12.056 4.55484 11.8321L7.55484 9.83205C8.01437 9.5257 8.13854 8.90483 7.83219 8.4453C7.52584 7.98577 6.90497 7.8616 6.44544 8.16795L4.00014 9.79815L1.55484 8.16795C1.09531 7.8616 0.47444 7.98577 0.168087 8.4453C-0.138265 8.90483 -0.0140911 9.5257 0.445437 9.83205Z" fill="#00B3FF"/>
</svg>
